name p11_grf_mean_speed_1.6
datacolumns 13
datarows 57
range 0.0000000000 0.5600000000
endheader
time	grf_x_l_mean	grf_x_l_var	grf_y_l_mean	grf_y_l_var	grf_z_l_mean	grf_z_l_var	grf_x_r_mean	grf_x_r_var	grf_y_r_mean	grf_y_r_var	grf_z_r_mean	grf_z_r_var
0.0000000000	223.6228506403	1.0000000000	994.6977155544	1.0000000000	0.0000000000	0.0000000000	11.9703222550	1.0000000000	11.4140994883	1.0000000000	0.0000000000	0.0000000000
0.0100000000	237.3577352420	1.0000000000	982.5337263430	1.0000000000	0.0000000000	0.0000000000	16.8500449188	1.0000000000	59.4438274080	1.0000000000	0.0000000000	0.0000000000
0.0200000000	248.6098942670	1.0000000000	955.0122110975	1.0000000000	0.0000000000	0.0000000000	16.3530885932	1.0000000000	141.5607554966	1.0000000000	0.0000000000	0.0000000000
0.0300000000	256.3027155208	1.0000000000	909.5875818953	1.0000000000	0.0000000000	0.0000000000	1.8098326948	1.0000000000	250.2290392145	1.0000000000	0.0000000000	0.0000000000
0.0400000000	257.8613849161	1.0000000000	843.7418458585	1.0000000000	0.0000000000	0.0000000000	-32.7471277016	1.0000000000	359.9265845828	1.0000000000	0.0000000000	0.0000000000
0.0500000000	250.1414217668	1.0000000000	754.5569843215	1.0000000000	0.0000000000	0.0000000000	-77.2208705472	1.0000000000	452.7095204007	1.0000000000	0.0000000000	0.0000000000
0.0600000000	232.4705715976	1.0000000000	645.8330194922	1.0000000000	0.0000000000	0.0000000000	-115.4246243305	1.0000000000	531.7976468172	1.0000000000	0.0000000000	0.0000000000
0.0700000000	204.2343095958	1.0000000000	526.2747002906	1.0000000000	0.0000000000	0.0000000000	-146.0808721763	1.0000000000	602.5655814752	1.0000000000	0.0000000000	0.0000000000
0.0800000000	164.8425312289	1.0000000000	404.1839773689	1.0000000000	0.0000000000	0.0000000000	-173.6409466576	1.0000000000	669.4784160137	1.0000000000	0.0000000000	0.0000000000
0.0900000000	120.4341653195	1.0000000000	290.3287028385	1.0000000000	0.0000000000	0.0000000000	-195.8406345531	1.0000000000	736.9325952036	1.0000000000	0.0000000000	0.0000000000
0.1000000000	80.0623798381	1.0000000000	195.7472954522	1.0000000000	0.0000000000	0.0000000000	-210.6532217600	1.0000000000	805.5190936159	1.0000000000	0.0000000000	0.0000000000
0.1100000000	47.7532288303	1.0000000000	123.4060650869	1.0000000000	0.0000000000	0.0000000000	-218.8633138640	1.0000000000	869.7664561793	1.0000000000	0.0000000000	0.0000000000
0.1200000000	24.7967730390	1.0000000000	71.4035978420	1.0000000000	0.0000000000	0.0000000000	-219.2635234781	1.0000000000	923.8310105897	1.0000000000	0.0000000000	0.0000000000
0.1300000000	10.6121924670	1.0000000000	38.2873447866	1.0000000000	0.0000000000	0.0000000000	-212.9136429628	1.0000000000	966.5419651004	1.0000000000	0.0000000000	0.0000000000
0.1400000000	3.1662109287	1.0000000000	20.2535773944	1.0000000000	0.0000000000	0.0000000000	-202.9152546371	1.0000000000	996.5797786984	1.0000000000	0.0000000000	0.0000000000
0.1500000000	-0.2967239870	1.0000000000	10.8599188042	1.0000000000	0.0000000000	0.0000000000	-188.7934686631	1.0000000000	1010.7834841776	1.0000000000	0.0000000000	0.0000000000
0.1600000000	-1.6460317012	1.0000000000	5.6575796761	1.0000000000	0.0000000000	0.0000000000	-172.2744983405	1.0000000000	1009.4921926432	1.0000000000	0.0000000000	0.0000000000
0.1700000000	-1.8734318721	1.0000000000	4.1294277239	1.0000000000	0.0000000000	0.0000000000	-155.1195720711	1.0000000000	995.6886301495	1.0000000000	0.0000000000	0.0000000000
0.1800000000	-1.3411545263	1.0000000000	4.2787281221	1.0000000000	0.0000000000	0.0000000000	-137.2293141437	1.0000000000	970.2879669491	1.0000000000	0.0000000000	0.0000000000
0.1900000000	-1.2094525229	1.0000000000	4.0991739521	1.0000000000	0.0000000000	0.0000000000	-119.3432649347	1.0000000000	934.7181408657	1.0000000000	0.0000000000	0.0000000000
0.2000000000	-1.0577781613	1.0000000000	4.2420254272	1.0000000000	0.0000000000	0.0000000000	-103.1035428178	1.0000000000	891.4041875118	1.0000000000	0.0000000000	0.0000000000
0.2100000000	-0.6866128443	1.0000000000	4.7745155167	1.0000000000	0.0000000000	0.0000000000	-87.5170343172	1.0000000000	842.8330986939	1.0000000000	0.0000000000	0.0000000000
0.2200000000	-0.4089068080	1.0000000000	4.2919817242	1.0000000000	0.0000000000	0.0000000000	-73.4531869635	1.0000000000	791.9352966798	1.0000000000	0.0000000000	0.0000000000
0.2300000000	-0.1721211794	1.0000000000	3.6115842464	1.0000000000	0.0000000000	0.0000000000	-61.8203417007	1.0000000000	742.5089924852	1.0000000000	0.0000000000	0.0000000000
0.2400000000	0.3629063485	1.0000000000	3.5329181368	1.0000000000	0.0000000000	0.0000000000	-51.5431897585	1.0000000000	697.0654060803	1.0000000000	0.0000000000	0.0000000000
0.2500000000	0.2125328168	1.0000000000	3.0868843269	1.0000000000	0.0000000000	0.0000000000	-42.4548628558	1.0000000000	656.2224220441	1.0000000000	0.0000000000	0.0000000000
0.2600000000	-0.0259060229	1.0000000000	2.4732247265	1.0000000000	0.0000000000	0.0000000000	-35.1582005745	1.0000000000	621.8013108290	1.0000000000	0.0000000000	0.0000000000
0.2700000000	0.2787968367	1.0000000000	2.4619389525	1.0000000000	0.0000000000	0.0000000000	-28.6697485866	1.0000000000	596.0666380533	1.0000000000	0.0000000000	0.0000000000
0.2800000000	0.2882304495	1.0000000000	2.5744486947	1.0000000000	0.0000000000	0.0000000000	-22.5575685440	1.0000000000	577.7160648892	1.0000000000	0.0000000000	0.0000000000
0.2900000000	0.1352056047	1.0000000000	2.3134487871	1.0000000000	0.0000000000	0.0000000000	-17.2780665618	1.0000000000	564.6033811309	1.0000000000	0.0000000000	0.0000000000
0.3000000000	0.1478440572	1.0000000000	2.1561825114	1.0000000000	0.0000000000	0.0000000000	-12.4484165068	1.0000000000	557.7762955578	1.0000000000	0.0000000000	0.0000000000
0.3100000000	-0.0488729902	1.0000000000	2.2793498102	1.0000000000	0.0000000000	0.0000000000	-7.9756141946	1.0000000000	557.2407257424	1.0000000000	0.0000000000	0.0000000000
0.3200000000	-0.2410453818	1.0000000000	2.1511350549	1.0000000000	0.0000000000	0.0000000000	-3.8097465335	1.0000000000	560.9504496353	1.0000000000	0.0000000000	0.0000000000
0.3300000000	-0.1894750441	1.0000000000	1.8734374847	1.0000000000	0.0000000000	0.0000000000	0.4731077168	1.0000000000	568.6944466813	1.0000000000	0.0000000000	0.0000000000
0.3400000000	-0.3488782786	1.0000000000	2.0445476607	1.0000000000	0.0000000000	0.0000000000	5.0782001725	1.0000000000	581.4751823738	1.0000000000	0.0000000000	0.0000000000
0.3500000000	-0.3433741608	1.0000000000	2.1616139312	1.0000000000	0.0000000000	0.0000000000	10.0627246532	1.0000000000	598.7128599289	1.0000000000	0.0000000000	0.0000000000
0.3600000000	-0.0556358222	1.0000000000	1.9852919508	1.0000000000	0.0000000000	0.0000000000	15.8246895729	1.0000000000	619.7904301344	1.0000000000	0.0000000000	0.0000000000
0.3700000000	0.0111486669	1.0000000000	1.8862108002	1.0000000000	0.0000000000	0.0000000000	22.9233047046	1.0000000000	644.5816732478	1.0000000000	0.0000000000	0.0000000000
0.3800000000	0.0836899561	1.0000000000	1.7578960370	1.0000000000	0.0000000000	0.0000000000	31.5381840039	1.0000000000	672.1792552224	1.0000000000	0.0000000000	0.0000000000
0.3900000000	0.1229530832	1.0000000000	1.6939718229	1.0000000000	0.0000000000	0.0000000000	41.8529984755	1.0000000000	701.8410623059	1.0000000000	0.0000000000	0.0000000000
0.4000000000	-0.1506971827	1.0000000000	2.1295571955	1.0000000000	0.0000000000	0.0000000000	54.2084531248	1.0000000000	733.7121303086	1.0000000000	0.0000000000	0.0000000000
0.4100000000	-0.4164607771	1.0000000000	2.6356894460	1.0000000000	0.0000000000	0.0000000000	68.8360122020	1.0000000000	766.8427178095	1.0000000000	0.0000000000	0.0000000000
0.4200000000	-0.4618555296	1.0000000000	2.4600346224	1.0000000000	0.0000000000	0.0000000000	85.1947632157	1.0000000000	799.7795912640	1.0000000000	0.0000000000	0.0000000000
0.4300000000	-0.4573353143	1.0000000000	1.4091969074	1.0000000000	0.0000000000	0.0000000000	102.7519620581	1.0000000000	832.8928495819	1.0000000000	0.0000000000	0.0000000000
0.4400000000	0.0000000000	1.0000000000	0.0000000000	1.0000000000	0.0000000000	0.0000000000	120.6921267389	1.0000000000	866.1438728919	1.0000000000	0.0000000000	0.0000000000
0.4500000000	0.0000000000	1.0000000000	0.0000000000	1.0000000000	0.0000000000	0.0000000000	137.9109080547	1.0000000000	897.2355471256	1.0000000000	0.0000000000	0.0000000000
0.4600000000	0.0000000000	1.0000000000	0.0000000000	1.0000000000	0.0000000000	0.0000000000	154.1580759954	1.0000000000	924.1106331770	1.0000000000	0.0000000000	0.0000000000
0.4700000000	0.0000000000	1.0000000000	0.0000000000	1.0000000000	0.0000000000	0.0000000000	169.6737515985	1.0000000000	945.9082692499	1.0000000000	0.0000000000	0.0000000000
0.4800000000	0.0000000000	1.0000000000	0.0000000000	1.0000000000	0.0000000000	0.0000000000	184.4156381482	1.0000000000	960.8926768866	1.0000000000	0.0000000000	0.0000000000
0.4900000000	7.3875107696	1.0000000000	7.4612395807	1.0000000000	0.0000000000	0.0000000000	198.7307981243	1.0000000000	966.5092838122	1.0000000000	0.0000000000	0.0000000000
0.5000000000	10.3482890730	1.0000000000	47.8151189857	1.0000000000	0.0000000000	0.0000000000	212.9289385909	1.0000000000	960.7987837929	1.0000000000	0.0000000000	0.0000000000
0.5100000000	10.0507470404	1.0000000000	119.9329790601	1.0000000000	0.0000000000	0.0000000000	226.2511318005	1.0000000000	942.3625996594	1.0000000000	0.0000000000	0.0000000000
0.5200000000	0.7852564275	1.0000000000	220.4522252077	1.0000000000	0.0000000000	0.0000000000	237.7482204980	1.0000000000	909.4347492641	1.0000000000	0.0000000000	0.0000000000
0.5300000000	-23.7418924612	1.0000000000	329.0653191476	1.0000000000	0.0000000000	0.0000000000	245.6690234710	1.0000000000	859.5541520528	1.0000000000	0.0000000000	0.0000000000
0.5400000000	-61.4409675201	1.0000000000	422.5105294314	1.0000000000	0.0000000000	0.0000000000	246.8586998283	1.0000000000	789.6147680531	1.0000000000	0.0000000000	0.0000000000
0.5500000000	-100.4698387100	1.0000000000	497.2890989835	1.0000000000	0.0000000000	0.0000000000	239.6895610878	1.0000000000	698.9493823125	1.0000000000	0.0000000000	0.0000000000
0.5600000000	-134.6314752162	1.0000000000	563.4064219849	1.0000000000	0.0000000000	0.0000000000	222.6013558835	1.0000000000	591.9597957853	1.0000000000	0.0000000000	0.0000000000
